<svg xmlns="http://www.w3.org/2000/svg" id="Calque_1" width="466" height="80" viewBox="0 0 466 80"><style>.st0{fill:#fff;opacity:0.2}</style><path class="st0" d="M105.339 50.072a3.167 3.167 0 0 0-3.152 3.152v4.372c.102.61.508 1.017 1.118 1.017h4.169c.61 0 1.017-.407 1.017-1.017v-4.372a3.168 3.168 0 0 0-3.152-3.152zm1.221 6.508h-2.135v-3.355h-.102c0-.61.508-1.118 1.118-1.118s1.118.508 1.118 1.118v3.355zm-1.221-17.998a3.168 3.168 0 0 0-3.152 3.152v4.372c.102.508.508 1.017 1.118 1.017h4.169c.61 0 1.017-.407 1.017-1.017v-4.372a3.168 3.168 0 0 0-3.152-3.152zm1.221 6.508h-2.135v-3.355h-.102c0-.61.508-1.118 1.118-1.118s1.118.508 1.118 1.118v3.355zm-1.221 16.472a3.168 3.168 0 0 0-3.152 3.152v4.372c.102.508.508 1.017 1.118 1.017h4.169c.61 0 1.017-.407 1.017-1.017v-4.372a3.168 3.168 0 0 0-3.152-3.152zm1.221 6.508h-2.135v-3.355h-.102c0-.61.508-1.118 1.118-1.118s1.118.508 1.118 1.118v3.355zm-1.221-41.079a3.168 3.168 0 0 0-3.152 3.152v4.372c.102.61.508 1.017 1.118 1.017h4.169c.61 0 1.017-.407 1.017-1.017v-4.372a3.167 3.167 0 0 0-3.152-3.152zm1.221 6.507h-2.135v-3.355h-.102c0-.61.508-1.118 1.118-1.118s1.118.508 1.118 1.118v3.355zm7.321 16.574c-1.729 0-3.05 1.423-3.05 3.152v4.372c0 .61.407 1.017 1.017 1.017h4.169c.61 0 1.017-.407 1.017-1.017v-4.372a3.17 3.17 0 0 0-3.153-3.152zm1.22 6.508h-2.237v-3.355c0-.61.508-1.118 1.118-1.118.61 0 1.118.508 1.118 1.118v3.355zm-1.22-17.998c-1.729 0-3.05 1.424-3.05 3.152v4.372a1.02 1.02 0 0 0 1.017 1.017h4.169c.61 0 1.017-.407 1.017-1.017v-4.372a3.17 3.17 0 0 0-3.153-3.152zm1.22 6.508h-2.237v-3.355c0-.61.508-1.118 1.118-1.118.61 0 1.118.508 1.118 1.118v3.355zm-1.22 16.472c-1.729 0-3.05 1.424-3.05 3.152v4.372a1.02 1.02 0 0 0 1.017 1.017h4.169c.61 0 1.017-.407 1.017-1.017v-4.372a3.17 3.17 0 0 0-3.153-3.152zm1.22 6.508h-2.237v-3.355c0-.61.508-1.118 1.118-1.118.61 0 1.118.508 1.118 1.118v3.355zm-1.22-41.079c-1.729 0-3.05 1.424-3.05 3.152v4.372c0 .61.407 1.017 1.017 1.017h4.169c.61 0 1.017-.407 1.017-1.017v-4.372a3.17 3.17 0 0 0-3.153-3.152zm1.22 6.507h-2.237v-3.355c0-.61.508-1.118 1.118-1.118.61 0 1.118.508 1.118 1.118v3.355zm7.321 16.574a3.167 3.167 0 0 0-3.152 3.152v4.372c.102.61.508 1.017 1.118 1.017h4.169c.61 0 1.017-.407 1.017-1.017v-4.372a3.169 3.169 0 0 0-3.152-3.152zm1.22 6.508h-2.135v-3.355h-.102c0-.61.508-1.118 1.119-1.118.61 0 1.118.508 1.118 1.118v3.355zm-1.22-17.998a3.168 3.168 0 0 0-3.152 3.152v4.372c.102.508.508 1.017 1.118 1.017h4.169c.61 0 1.017-.407 1.017-1.017v-4.372a3.169 3.169 0 0 0-3.152-3.152zm1.22 6.508h-2.135v-3.355h-.102c0-.61.508-1.118 1.119-1.118.61 0 1.118.508 1.118 1.118v3.355zm-1.22 16.472a3.168 3.168 0 0 0-3.152 3.152v4.372c.102.508.508 1.017 1.118 1.017h4.169c.61 0 1.017-.407 1.017-1.017v-4.372a3.169 3.169 0 0 0-3.152-3.152zm1.22 6.508h-2.135v-3.355h-.102c0-.61.508-1.118 1.119-1.118.61 0 1.118.508 1.118 1.118v3.355zm-1.22-41.079a3.168 3.168 0 0 0-3.152 3.152v4.372c.102.61.508 1.017 1.118 1.017h4.169c.61 0 1.017-.407 1.017-1.017v-4.372a3.168 3.168 0 0 0-3.152-3.152zm1.22 6.507h-2.135v-3.355h-.102c0-.61.508-1.118 1.119-1.118.61 0 1.118.508 1.118 1.118v3.355zm30.504 12.812c-1.83 0-3.355 1.525-3.355 3.355v3.152c0 .61.508 1.017 1.017 1.017h4.677c.61 0 1.017-.407 1.017-1.017v-3.152c-.001-1.83-1.526-3.355-3.356-3.355zm1.322 5.491h-2.644v-2.135c0-.712.61-1.322 1.322-1.322.712 0 1.322.61 1.322 1.322v2.135zm-11.897-5.491c-1.83 0-3.355 1.525-3.355 3.355v3.152c0 .61.407 1.017 1.017 1.017h4.677c.61 0 1.017-.407 1.017-1.017v-3.152c0-1.83-1.526-3.355-3.356-3.355zm1.322 5.491h-2.644v-2.135c0-.712.61-1.322 1.322-1.322.712 0 1.322.61 1.322 1.322v2.135zM38.129 43.87c-1.83 0-3.254 1.424-3.254 3.254v4.982c0 .61.508 1.017 1.017 1.017h4.474c.61 0 1.017-.407 1.017-1.017v-4.982c0-1.831-1.424-3.254-3.254-3.254zm1.22 7.321h-2.44v-3.966c0-.712.508-1.22 1.22-1.22s1.22.508 1.22 1.22v3.966zm-1.22-21.251c-1.83 0-3.254 1.424-3.254 3.254v4.982c0 .508.508 1.017 1.017 1.017h4.474c.61 0 1.017-.407 1.017-1.017v-4.982c0-1.831-1.424-3.254-3.254-3.254zm1.22 7.219h-2.44v-3.966c0-.712.508-1.22 1.22-1.22s1.22.508 1.22 1.22v3.966zm-1.22-21.353c-1.83 0-3.254 1.424-3.254 3.254v4.982c0 .61.508 1.017 1.017 1.017h4.474c.61 0 1.017-.407 1.017-1.017V19.06c0-1.83-1.424-3.254-3.254-3.254zm1.22 7.219h-2.44V19.06c0-.712.508-1.22 1.22-1.22s1.22.508 1.22 1.22v3.965zm7.829 20.845c-1.83 0-3.254 1.424-3.254 3.254v4.982c0 .61.407 1.017 1.017 1.017h4.474c.61 0 1.017-.407 1.017-1.017v-4.982c0-1.831-1.423-3.254-3.254-3.254zm1.221 7.321h-2.44v-3.966c0-.712.508-1.22 1.22-1.22s1.22.508 1.22 1.22v3.966zM47.178 29.94c-1.83 0-3.254 1.424-3.254 3.254v4.982a1.02 1.02 0 0 0 1.017 1.017h4.474c.61 0 1.017-.407 1.017-1.017v-4.982c0-1.831-1.423-3.254-3.254-3.254zm1.221 7.219h-2.44v-3.966c0-.712.508-1.22 1.22-1.22s1.22.508 1.22 1.22v3.966zm-1.221-21.353c-1.83 0-3.254 1.424-3.254 3.254v4.982c0 .61.407 1.017 1.017 1.017h4.474c.61 0 1.017-.407 1.017-1.017V19.06c0-1.83-1.423-3.254-3.254-3.254zm1.221 7.219h-2.44V19.06c0-.712.508-1.22 1.22-1.22s1.22.508 1.22 1.22v3.965zm7.727 20.845c-1.83 0-3.254 1.424-3.254 3.254v4.982c0 .61.508 1.017 1.017 1.017h4.474c.61 0 1.017-.407 1.017-1.017v-4.982c0-1.831-1.423-3.254-3.254-3.254zm1.22 7.321h-2.44v-3.966c0-.712.508-1.22 1.22-1.22s1.22.508 1.22 1.22v3.966zm-1.22-21.251c-1.83 0-3.254 1.424-3.254 3.254v4.982c0 .508.508 1.017 1.017 1.017h4.474c.61 0 1.017-.407 1.017-1.017v-4.982c0-1.831-1.423-3.254-3.254-3.254zm1.22 7.219h-2.44v-3.966c0-.712.508-1.22 1.22-1.22s1.22.508 1.22 1.22v3.966zm-1.22-21.353c-1.83 0-3.254 1.424-3.254 3.254v4.982c0 .61.508 1.017 1.017 1.017h4.474c.61 0 1.017-.407 1.017-1.017V19.06c0-1.83-1.423-3.254-3.254-3.254zm1.22 7.219h-2.44V19.06c0-.712.508-1.22 1.22-1.22s1.22.508 1.22 1.22v3.965zm-45.857 21.76a3.428 3.428 0 0 0-3.457 3.457v3.355c0 .508.508 1.017 1.017 1.017h4.881c.61 0 1.017-.407 1.017-1.017v-3.355a3.43 3.43 0 0 0-3.458-3.457zm1.423 5.796h-2.847v-2.339c0-.813.61-1.424 1.424-1.424.813 0 1.424.61 1.424 1.424v2.339zm9.863-5.796a3.428 3.428 0 0 0-3.457 3.457v3.355c0 .508.508 1.017 1.017 1.017h4.881c.61 0 1.017-.407 1.017-1.017v-3.355a3.43 3.43 0 0 0-3.458-3.457zm1.424 5.796h-2.847v-2.339c0-.813.61-1.424 1.423-1.424.813 0 1.424.61 1.424 1.424v2.339zm377.72 25.153c3.063-.468 5.409-2.961 5.409-5.966a5.772 5.772 0 0 0-1.099-3.381 4.92 4.92 0 0 0 .284-1.653 5.07 5.07 0 0 0-.955-2.947 4.305 4.305 0 0 0 .204-1.567c-.114-2.122-1.739-3.84-3.864-4.264v-39.66h30.059V80h2.035V16.296h.436c.562 0 1.017-.455 1.017-1.017V9.121c0-.562-.454-1.017-1.017-1.017h-14.744v-5.72c0-.562-.454-1.017-1.017-1.017h-4.601c-.562 0-1.017.455-1.017 1.017v5.719h-3.983V2.384c0-.562-.454-1.017-1.017-1.017h-4.601c-.562 0-1.017.455-1.017 1.017v5.719h-3.084c-.562 0-1.017.455-1.017 1.017v6.159c0 .562.454 1.017 1.017 1.017h.518v39.658c-2.207.442-3.87 2.291-3.87 4.501 0 .454.07.9.211 1.332a5.072 5.072 0 0 0-.955 2.948c0 .567.096 1.122.284 1.654a5.802 5.802 0 0 0-1.099 3.38c0 3.018 2.368 5.519 5.449 5.972l.01 4.259h2.034l-.01-4.266zm13.165-72.333h2.567v4.703h-2.567V3.401zm-10.619 0h2.567v4.703h-2.567V3.401zm-4.1 6.736h33.046v4.125h-33.046v-4.125zm-3.895 59.632c0-.935.345-1.814.995-2.54.281-.313.34-.766.149-1.14a2.96 2.96 0 0 1-.33-1.354c0-.76.297-1.501.836-2.085.286-.31.351-.765.163-1.142a2.342 2.342 0 0 1-.254-1.052c0-1.418 1.28-2.571 2.853-2.571 1.524 0 2.776 1.075 2.849 2.441l.004.129c0 .361-.085.715-.253 1.05-.189.378-.124.833.162 1.144.539.585.836 1.326.836 2.085 0 .467-.111.922-.331 1.354-.191.375-.13.83.153 1.143.098.108.188.223.271.336.472.656.722 1.416.722 2.201 0 2.216-1.98 4.017-4.413 4.017-2.433.001-4.412-1.801-4.412-4.016zm-38.715-8.565h8.079V80h2.034v-6.601h22.64V80h2.033V61.204h.622a1.015 1.015 0 0 0 .995-1.221l-1.619-7.869V35.549c0-.073-.008-.147-.023-.22l-1.374-6.221a1.018 1.018 0 0 0-.993-.797h-3.676v-1.37c0-.562-.454-1.017-1.017-1.017h-4.485c-.562 0-1.017.455-1.017 1.017v1.37h-11.795v-1.37c0-.562-.455-1.017-1.017-1.017h-4.485c-.562 0-1.017.455-1.017 1.017v1.37h-3.522c-.477 0-.89.331-.993.797l-1.374 6.221a1.015 1.015 0 0 0-.023.22v16.627l-1.607 7.806a1.018 1.018 0 0 0 .995 1.221h.604V80h2.035V61.204zm7.193-2.033h-3.412v-5.888h3.412v5.888zm2.035 0v-5.888h3.411v5.888h-3.411zm23.525 12.194h-22.64V61.204h22.64v10.161zm-18.08-12.194v-5.888h3.412v5.888h-3.412zm5.447 0v-5.888h3.411v5.888h-3.411zm5.445 0v-5.888h3.412v5.888h-3.412zm8.596 0h-3.15v-5.888h1.939l1.211 5.888zm-9.926-31.212h2.451v3.658h-2.451v-3.658zm-18.316 0h2.452v3.658h-2.452v-3.658zm-4.738 2.386h2.705v2.289c0 .562.454 1.017 1.017 1.017h4.485c.562 0 1.017-.455 1.017-1.017v-2.289h11.797v2.289c0 .562.455 1.017 1.017 1.017h4.485c.562 0 1.017-.455 1.017-1.017v-2.289h2.859l1.079 4.887h-32.556l1.078-4.887zm-1.173 6.921h32.745v13.983h-32.745V37.266zm-.186 16.016h1.926v5.888h-3.138l1.212-5.888z"/><path class="st0" d="M416.356 62.884a5.426 5.426 0 0 0-5.419 5.419V80h2.034V68.302a3.388 3.388 0 0 1 3.385-3.385 3.389 3.389 0 0 1 3.386 3.385V80h2.034V68.302a5.426 5.426 0 0 0-5.42-5.418zm31.748 11.388c2.034-.305 3.864-1.322 5.084-2.847.712.203 1.424.407 2.237.508V80h2.034v-8.168c4.779-.508 8.541-4.271 8.541-8.948 0-1.83-.61-3.559-1.627-4.982-.102-.102-.102-.203-.203-.203.305-.915.508-1.729.508-2.745 0-1.627-.508-3.254-1.627-4.576.305-.712.407-1.423.407-2.237v-.305c-.203-3.559-3.355-6.304-7.118-6.304-3.966 0-7.118 2.949-7.118 6.711 0 .712.102 1.525.407 2.237-.203.203-.305.407-.407.712-.712-.305-1.424-.407-2.237-.407-3.152 0-5.694 2.44-5.694 5.287 0 .61.102 1.119.305 1.627-.712 1.017-1.22 2.237-1.22 3.559 0 .712.102 1.423.407 2.034-.915 1.22-1.322 2.542-1.322 4.067 0 3.559 2.847 6.507 6.609 7.016V80h2.034v-5.728zm2.441-15.659c.305-.305.305-.813.102-1.118-.407-.813-.61-1.525-.61-2.44 0-1.322.508-2.644 1.525-3.66.305-.305.305-.813.203-1.118-.305-.61-.508-1.22-.508-1.932 0-2.542 2.237-4.677 5.084-4.677 2.745 0 4.982 1.932 5.084 4.372v.203c0 .61-.203 1.322-.508 1.932-.203.407-.102.813.203 1.118a5.519 5.519 0 0 1 1.424 3.66c0 .813-.203 1.627-.61 2.44-.203.407-.102.813.102 1.118.203.203.305.407.508.61.813 1.119 1.22 2.44 1.22 3.864 0 3.864-3.355 6.914-7.524 6.914-3.966 0-7.423-3.152-7.423-6.914-.001-1.626.609-3.152 1.728-4.372zm-9.05 8.643c0-1.22.407-2.237 1.22-3.152.305-.305.305-.813.102-1.118-.305-.508-.407-1.118-.407-1.729 0-1.017.407-1.932 1.017-2.644.305-.305.305-.813.203-1.118a3.137 3.137 0 0 1-.305-1.322c0-1.83 1.627-3.254 3.66-3.254.508 0 .915.102 1.424.305-.203.61-.305 1.322-.305 2.034 0 .915.203 1.83.508 2.745-1.22 1.525-1.83 3.355-1.83 5.287 0 3.152 1.729 5.999 4.474 7.524-1.017 1.118-2.542 1.83-4.271 1.83-3.05-.304-5.49-2.643-5.49-5.388zm-61.033-27.26a3.776 3.776 0 0 0-3.771 3.771v3.735c0 .562.454 1.017 1.017 1.017h5.509c.562 0 1.017-.455 1.017-1.017v-3.735a3.777 3.777 0 0 0-3.772-3.771zm1.737 6.489h-3.475v-2.718c0-.958.78-1.738 1.738-1.738s1.738.78 1.738 1.738v2.718zm-14.392-6.489a3.776 3.776 0 0 0-3.771 3.771v3.735c0 .562.455 1.017 1.017 1.017h5.509c.562 0 1.017-.455 1.017-1.017v-3.735a3.776 3.776 0 0 0-3.772-3.771zm1.738 6.489h-3.475v-2.718c0-.958.78-1.738 1.738-1.738s1.738.78 1.738 1.738v2.718zm41.902-24.238a3.776 3.776 0 0 0-3.772 3.771v3.735c0 .562.456 1.017 1.017 1.017h5.51c.562 0 1.017-.455 1.017-1.017v-3.735a3.776 3.776 0 0 0-3.772-3.771zm1.738 6.49h-3.476v-2.718c0-.958.78-1.738 1.739-1.738.958 0 1.738.78 1.738 1.738v2.718zm9.193-6.49a3.776 3.776 0 0 0-3.772 3.771v3.735c0 .562.456 1.017 1.017 1.017h5.51c.562 0 1.017-.455 1.017-1.017v-3.735a3.777 3.777 0 0 0-3.772-3.771zm1.738 6.49h-3.476v-2.718c0-.958.78-1.738 1.739-1.738.958 0 1.738.78 1.738 1.738v2.718zm-12.717 7.032a3.776 3.776 0 0 0-3.771 3.771v3.735c0 .562.454 1.017 1.017 1.017h5.51c.562 0 1.017-.455 1.017-1.017V39.54a3.777 3.777 0 0 0-3.773-3.771zm1.738 6.489h-3.476V39.54c0-.958.78-1.738 1.738-1.738.959 0 1.739.78 1.739 1.738v2.718zm9.192-6.489a3.776 3.776 0 0 0-3.771 3.771v3.735c0 .562.454 1.017 1.017 1.017h5.51c.562 0 1.017-.455 1.017-1.017V39.54a3.776 3.776 0 0 0-3.773-3.771zm1.739 6.489h-3.476V39.54c0-.958.78-1.738 1.738-1.738.959 0 1.739.78 1.739 1.738v2.718zm-12.669 6.983a3.776 3.776 0 0 0-3.771 3.771v3.735c0 .562.454 1.017 1.017 1.017h5.51c.562 0 1.017-.455 1.017-1.017v-3.735a3.777 3.777 0 0 0-3.773-3.771zm1.738 6.49h-3.476v-2.718c0-.958.78-1.738 1.738-1.738.959 0 1.739.78 1.739 1.738v2.718zm9.192-6.49a3.776 3.776 0 0 0-3.771 3.771v3.735c0 .562.454 1.017 1.017 1.017h5.51c.562 0 1.017-.455 1.017-1.017v-3.735a3.776 3.776 0 0 0-3.773-3.771zm1.739 6.49h-3.476v-2.718c0-.958.78-1.738 1.738-1.738.959 0 1.739.78 1.739 1.738v2.718zM277.174 77.253h13.918V80h2.034V66.889h5.444V80h2.033V8.137h25.284V80h2.034V66.889h5.438V80h2.034v-2.747h13.919V80h2.034V66.889h.077c.302 0 .588-.134.782-.365.192-.233.273-.538.219-.835l-1.078-5.874v-12.33c0-.073-.008-.147-.023-.22l-1.025-4.644a1.017 1.017 0 0 0-.993-.797h-11.344v-4.261c0-.562-.455-1.017-1.017-1.017h-4.406c-.562 0-1.017.455-1.017 1.017v4.261h-3.598V8.137h.438c.562 0 1.017-.455 1.017-1.017V2.384c0-.562-.455-1.017-1.017-1.017h-29.959c-.562 0-1.017.455-1.017 1.017V7.12c0 .562.454 1.017 1.017 1.017h.171v5.707h-21.387c-.387 0-.741.221-.912.568l-3.41 6.926a1.018 1.018 0 0 0 .906 1.466l2.4.016v12.694h-.936a1.017 1.017 0 1 0 0 2.034h.936v5.182l-1.001 4.536a1.015 1.015 0 0 0-.023.22v12.329l-1.078 5.874a1.013 1.013 0 0 0 1.001 1.2h.077V80h2.033v-2.747zM334.3 64.855h-2.031v-3.878h2.031v3.878zm15.01 10.365h-13.919v-8.331h13.919v8.331zm-12.976-10.365v-3.878h2.031v3.878h-2.031zm4.064 0v-3.878h2.031v3.878h-2.031zm4.064 0v-3.878h2.031v3.878h-2.031zm5.739 0h-1.674v-3.878h.963l.711 3.878zM333.552 38.58h2.372v3.245h-2.372V38.58zm-5.632 5.279h20.566l.691 3.132H327.92v-3.132zm0 5.165h21.39v9.92h-21.39v-9.92zm0 11.953h2.316v3.878h-2.316v-3.878zm-51.636 3.878l.711-3.878h.962v3.878h-1.673zm14.808 10.364h-13.918v-8.33h13.918v8.33zM279.99 64.855v-3.878h2.032v3.878h-2.032zm4.065 0v-3.878h2.031v3.878h-2.031zm4.064 0v-3.878h2.031v3.878h-2.031zm6.095 0h-2.031v-3.878h2.031v3.878zm4.355 0h-2.321v-3.878h2.321v3.878zm.001-5.911h-21.396v-9.92h21.396v9.92zm-.001-15.085v3.132h-21.261l.691-3.132h20.57zm-20.371-2.034v-4.277h2.596v4.277h-2.596zm4.63 0v-4.277h2.349v4.277h-2.349zm4.381 0v-4.277h2.349v4.277h-2.349zm4.383 0v-4.277h2.349v4.277h-2.349zm6.978 0h-2.596v-4.277h2.596v4.277zm.846-38.424h27.925v2.703h-27.925V3.401zm-.845 19.425v12.689h-20.372V22.833c3.798.022 9.026.047 13.321.047 3.214 0 5.894-.014 7.051-.054zm-23.17-2.045l2.414-4.903h20.755v4.919c-2.069.087-14.206.043-23.169-.016zM47.28 62.172a5.685 5.685 0 0 0-5.694 5.694V80h2.034V67.866a3.646 3.646 0 0 1 3.661-3.661 3.645 3.645 0 0 1 3.66 3.661V80h2.034V67.866a5.686 5.686 0 0 0-5.695-5.694zm191.951 5.656h-6.679c-.561 0-1.017.454-1.017 1.017V80h2.034V69.861h4.646V80h2.034V68.844a1.017 1.017 0 0 0-1.018-1.016z"/><path class="st0" d="M313.282 65.157a4.924 4.924 0 0 0-4.919 4.919V80h2.034v-9.923a2.89 2.89 0 0 1 2.886-2.886 2.89 2.89 0 0 1 2.887 2.886V80h2.034v-9.923a4.928 4.928 0 0 0-4.922-4.92zM3.964 76.204h16.981V80h2.135V63.901h6.914V80h1.932V9.095h30.606V80h2.135V9.095h.712c.61 0 1.017-.407 1.017-1.017V2.384c0-.61-.407-1.017-1.017-1.017H29.486c-.61 0-1.017.407-1.017 1.017v5.694c0 .61.407 1.017 1.017 1.017h.407v17.692H5.185v-1.424c0-.61-.407-1.017-1.017-1.017s-1.017.407-1.017 1.017v1.424H1.829c-.61 0-1.017.407-1.017 1.017 0 .61.407 1.017 1.017 1.017h1.322v6.406l-1.22 5.389v14.947l-1.83 7.016c-.102.305 0 .61.203.915.203.305.508.407.813.407h.813V80h2.034v-3.796zM30.503 3.401h33.758v3.66H30.503v-3.66zm-9.456 70.871H4.066V63.901h16.981v10.371zM7.32 61.765v-4.982h2.847v4.982H7.32zm4.881 0v-4.982h2.847v4.982h-2.847zm4.88 0v-4.982h2.847v4.982h-2.847zm7.626.102H21.86v-4.982h2.847v4.982zm5.186-.102h-3.152v-4.982h3.152v4.982zm-3.457-32.944h3.457v5.491h-3.457v-5.491zm-5.186 0h3.152v5.491H21.25v-5.491zm-5.186 0h3.152v5.491h-3.152v-5.491zm-5.287 0h3.152v5.491h-3.152v-5.491zm-5.491 0h3.457v5.491H5.286v-5.491zm-.305 7.524h24.912v4.169H4.066l.915-4.169zm-1.017 6.203h25.928V54.75H3.964V42.548zm-.203 14.337h1.525v4.982H2.439l1.322-4.982zm85.005 10.574a3.167 3.167 0 0 0 1.118-.915c.61.712 1.322 1.118 2.135 1.118.813 0 1.627-.407 2.135-1.118.61.712 1.322 1.118 2.135 1.118.407 0 .915-.102 1.22-.305V80h2.135V21.398h28.775V80h2.034V21.398h.61c.61 0 1.017-.407 1.017-1.017v-5.389c0-.61-.407-1.017-1.017-1.017H97.307c-.61 0-1.017.407-1.017 1.017v5.389c0 .61.407 1.017 1.017 1.017h.305v27.454l-.102.102c0 .102-2.847 9.253-12.405 13.32-.407.203-.61.61-.61 1.017v.102c0 1.932.915 3.559 2.237 4.067V80h1.97c.064-2.843.064-12.541.064-12.541zm9.557-51.348h31.724v3.355H98.323v-3.355zm-6.304 49.62c-.305 0-.813-.508-1.017-1.322h2.034c-.203.814-.712 1.322-1.017 1.322zm4.373 0c-.305 0-.813-.508-1.017-1.322h2.034c-.204.814-.712 1.322-1.017 1.322zm1.22-11.998v8.541h-8.033c3.966-2.542 6.508-5.898 8.033-8.541zm-9.965 11.998c-.305 0-.813-.508-1.017-1.322h2.034c-.102.813-.61 1.322-1.017 1.322zm121.259-30.276h13.367V80h2.034V18.289h23.627V80h2.036V18.289h.083c.561 0 1.017-.455 1.017-1.017v-6.128c0-.562-.455-1.017-1.017-1.017h-5.167V5.663c0-.562-.456-1.017-1.017-1.017h-5.431c-.561 0-1.017.455-1.017 1.017v4.464H222.19c-.561 0-1.017.455-1.017 1.017v6.128c0 .562.456 1.017 1.017 1.017h.083v9.793h-15.994c-.561 0-1.017.455-1.017 1.017v5.339c0 .562.456 1.017 1.017 1.017h.594V80h2.034V35.455zM239.453 6.68h3.397v3.447h-3.397V6.68zm-16.246 5.481h25.828v4.095h-25.828v-4.095zm-15.911 17.954h14.977v3.306h-14.977v-3.306zm-72.063 34.396h6.507V80h1.932v-5.22h18.709V80h2.034V64.511h.407c.305 0 .61-.102.813-.407.203-.203.305-.508.203-.813l-1.322-6.609V42.549l-1.118-5.287c-.102-.508-.508-.813-1.017-.813h-2.949V35.43c0-.61-.407-1.017-1.017-1.017h-3.864c-.61 0-1.017.407-1.017 1.017v1.017h-9.558V35.43c0-.61-.407-1.017-1.017-1.017h-3.762c-.61 0-1.017.407-1.017 1.017v1.017h-2.847c-.508 0-.915.305-1.017.813l-1.118 5.287v14.235l-1.322 6.508a.79.79 0 0 0 .203.813c.203.203.508.407.813.407h.305V80h2.034V64.511zm5.694-2.034h-2.542v-4.576h2.542v4.576zm2.034 0V57.8h2.542v4.677h-2.542zm19.421 10.27h-18.709v-8.236h18.709v8.236zm-14.845-10.27v-4.576h2.542v4.576h-2.542zm4.575 0v-4.576h2.542v4.576h-2.542zm4.576 0v-4.576h2.542v4.576h-2.542zm6.914.102h-2.339v-4.677h1.424l.915 4.677zm-8.033-26.03h1.729v2.745h-1.729v-2.745zm-15.353 0h1.729v2.745h-1.729v-2.745zm-4.068 2.033h2.034v1.729c0 .61.407 1.017 1.017 1.017h3.762c.61 0 1.017-.407 1.017-1.017v-1.729h9.558v1.729c0 .61.407 1.017 1.017 1.017h3.762c.61 0 1.017-.407 1.017-1.017v-1.729h2.135l.813 3.762h-26.945l.813-3.762zm-.915 5.796h27.25v11.49h-27.25v-11.49zM135.03 57.8h1.322v4.677h-2.237l.915-4.677zm123.572 15.385a5.047 5.047 0 0 0 4.022-4.936c0-1.76-.911-3.308-2.283-4.209a3.767 3.767 0 0 0 1.036-2.588 3.796 3.796 0 0 0-3.792-3.793 3.797 3.797 0 0 0-3.792 3.793 3.77 3.77 0 0 0 1.036 2.588 5.03 5.03 0 0 0-2.282 4.209 5.048 5.048 0 0 0 4.021 4.936V80h2.032v-6.815zm-1.016-13.491a1.76 1.76 0 1 1-1.758 1.759c0-.97.789-1.759 1.758-1.759zm-3.005 8.555a3.008 3.008 0 0 1 3.005-3.005 3.009 3.009 0 0 1 3.006 3.005 3.009 3.009 0 0 1-3.006 3.005 3.008 3.008 0 0 1-3.005-3.005zm-76.947 6.023c2.034-.305 3.864-1.322 5.084-2.847.712.203 1.424.407 2.237.508V80h2.034v-8.168c3.969-.422 7.229-3.092 8.223-6.664.196.332.419.647.695.914a5.68 5.68 0 0 0-2.74 4.854c0 2.65 1.824 4.876 4.281 5.504V80h2.032v-3.414a5.694 5.694 0 0 0 5.06-5.65 5.682 5.682 0 0 0-2.74-4.854 4.22 4.22 0 0 0 1.293-3.038 4.245 4.245 0 0 0-4.239-4.24 4.228 4.228 0 0 0-3.588 2.008 8.768 8.768 0 0 0-1.361-2.909c-.102-.102-.102-.203-.203-.203.305-.915.508-1.729.508-2.745 0-1.627-.508-3.254-1.627-4.576.305-.712.407-1.423.407-2.237v-.305c-.203-3.559-3.355-6.304-7.118-6.304-3.966 0-7.118 2.949-7.118 6.711 0 .712.102 1.525.407 2.237-.203.203-.305.407-.407.712-.712-.305-1.424-.407-2.237-.407-3.152 0-5.694 2.44-5.694 5.287 0 .61.102 1.119.305 1.627-.712 1.017-1.22 2.237-1.22 3.559 0 .712.102 1.423.407 2.034-.915 1.22-1.322 2.542-1.322 4.067 0 3.559 2.847 6.507 6.609 7.016V80h2.034v-5.728zm21.216-13.435c1.216 0 2.205.99 2.205 2.206a2.208 2.208 0 0 1-2.205 2.206 2.208 2.208 0 0 1-2.205-2.206c0-1.216.989-2.206 2.205-2.206zm0 6.446a3.657 3.657 0 0 1 3.653 3.652 3.657 3.657 0 0 1-3.653 3.653 3.657 3.657 0 0 1-3.653-3.653 3.657 3.657 0 0 1 3.653-3.652zm-18.776-8.67c.305-.305.305-.813.102-1.118-.407-.813-.61-1.525-.61-2.44 0-1.322.508-2.644 1.525-3.66.305-.305.305-.813.203-1.118-.305-.61-.508-1.22-.508-1.932 0-2.542 2.237-4.677 5.084-4.677 2.745 0 4.982 1.932 5.084 4.372v.203c0 .61-.203 1.322-.508 1.932-.203.407-.102.813.203 1.118a5.519 5.519 0 0 1 1.424 3.66c0 .813-.203 1.627-.61 2.44-.203.407-.102.813.102 1.118.203.203.305.407.508.61.813 1.119 1.22 2.44 1.22 3.864 0 3.864-3.355 6.914-7.524 6.914-3.966 0-7.423-3.152-7.423-6.914 0-1.626.61-3.152 1.728-4.372zm-9.049 8.643c0-1.22.407-2.237 1.22-3.152.305-.305.305-.813.102-1.118-.305-.508-.407-1.118-.407-1.729 0-1.017.407-1.932 1.017-2.644.305-.305.305-.813.203-1.118a3.137 3.137 0 0 1-.305-1.322c0-1.83 1.627-3.254 3.66-3.254.508 0 .915.102 1.424.305-.203.61-.305 1.322-.305 2.034 0 .915.203 1.83.508 2.745-1.22 1.525-1.83 3.355-1.83 5.287 0 3.152 1.729 5.999 4.474 7.524-1.017 1.118-2.542 1.83-4.271 1.83-3.05-.304-5.49-2.643-5.49-5.388zm-96.19 7.016c3.762-.508 6.609-3.457 6.609-7.118 0-1.424-.407-2.847-1.322-3.966 0 0 0-.102-.102-.102.203-.712.407-1.322.407-2.034 0-1.322-.407-2.542-1.22-3.559a4.61 4.61 0 0 0 .305-1.627v-.305c-.203-2.847-2.644-5.084-5.694-5.084-3.152 0-5.694 2.44-5.694 5.389 0 .61.102 1.118.305 1.627-.813 1.017-1.22 2.237-1.22 3.559 0 .712.102 1.424.407 2.034-.915 1.22-1.322 2.644-1.322 4.067 0 3.66 2.949 6.609 6.609 7.118V80h1.932v-5.728zm-6.609-7.016c0-1.22.407-2.339 1.22-3.254.305-.305.305-.813.102-1.118a3.593 3.593 0 0 1-.407-1.729c0-1.017.407-1.932 1.118-2.644.305-.305.305-.813.203-1.118-.203-.61-.305-1.017-.305-1.525 0-1.83 1.627-3.355 3.66-3.355 1.932 0 3.559 1.424 3.66 3.152v.203c0 .508-.102.915-.305 1.424-.203.407-.102.813.203 1.118.712.712 1.118 1.729 1.118 2.644 0 .61-.102 1.22-.407 1.729-.203.407-.102.813.102 1.118.102.203.203.407.305.508.61.813.915 1.83.915 2.847 0 2.847-2.542 5.084-5.592 5.084-3.048 0-5.59-2.339-5.59-5.084zM269.452 78.26c2.046-.353 3.612-2.129 3.612-4.276 0-1.451-.721-2.73-1.815-3.521a3.287 3.287 0 0 0 .783-2.114 3.322 3.322 0 0 0-3.318-3.318 3.322 3.322 0 0 0-3.318 3.318c0 .807.301 1.538.783 2.114a4.34 4.34 0 0 0-1.816 3.521c0 1.945 1.291 3.576 3.055 4.131V80h2.034v-1.74zm-.74-11.196a1.284 1.284 0 1 1 0 2.568 1.284 1.284 0 0 1 0-2.568zm-2.317 6.92c0-1.278 1.039-2.317 2.317-2.317s2.316 1.039 2.316 2.317a2.318 2.318 0 0 1-2.316 2.316 2.319 2.319 0 0 1-2.317-2.316zm39.225-24.129a2.89 2.89 0 0 0-2.886 2.886v4.17c0 .562.456 1.017 1.017 1.017h3.738c.562 0 1.017-.455 1.017-1.017v-4.17a2.89 2.89 0 0 0-2.886-2.886zm.853 6.038h-1.704V52.74a.853.853 0 0 1 1.704 0v3.153zm-.853-17.785a2.89 2.89 0 0 0-2.886 2.887v4.169c0 .562.456 1.017 1.017 1.017h3.738c.562 0 1.017-.455 1.017-1.017v-4.169a2.89 2.89 0 0 0-2.886-2.887zm.853 6.039h-1.704v-3.152a.853.853 0 1 1 1.704 0v3.152zM305.62 26.3a2.89 2.89 0 0 0-2.886 2.886v4.17c0 .562.456 1.017 1.017 1.017h3.738c.562 0 1.017-.455 1.017-1.017v-4.17a2.89 2.89 0 0 0-2.886-2.886zm.853 6.039h-1.704v-3.153a.853.853 0 0 1 1.704 0v3.153zm6.7 17.516a2.89 2.89 0 0 0-2.886 2.886v4.17c0 .562.455 1.017 1.017 1.017h3.739c.562 0 1.017-.455 1.017-1.017v-4.17a2.89 2.89 0 0 0-2.887-2.886zm.853 6.038h-1.705V52.74a.853.853 0 0 1 1.705 0v3.153zm-.853-17.785a2.89 2.89 0 0 0-2.886 2.887v4.169c0 .562.455 1.017 1.017 1.017h3.739c.562 0 1.017-.455 1.017-1.017v-4.169a2.89 2.89 0 0 0-2.887-2.887zm.853 6.039h-1.705v-3.152a.853.853 0 1 1 1.705 0v3.152zm-.853-17.847a2.89 2.89 0 0 0-2.886 2.886v4.17c0 .562.455 1.017 1.017 1.017h3.739c.562 0 1.017-.455 1.017-1.017v-4.17a2.89 2.89 0 0 0-2.887-2.886zm.853 6.039h-1.705v-3.153a.853.853 0 0 1 1.705 0v3.153zm6.701 17.516a2.89 2.89 0 0 0-2.887 2.886v4.17c0 .562.454 1.017 1.017 1.017h3.739c.562 0 1.017-.455 1.017-1.017v-4.17a2.89 2.89 0 0 0-2.886-2.886zm.852 6.038h-1.705V52.74a.853.853 0 0 1 1.705 0v3.153zm-.852-17.785a2.89 2.89 0 0 0-2.887 2.887v4.169c0 .562.454 1.017 1.017 1.017h3.739c.562 0 1.017-.455 1.017-1.017v-4.169a2.89 2.89 0 0 0-2.886-2.887zm.852 6.039h-1.705v-3.152a.853.853 0 0 1 1.705 0v3.152zm-.852-17.847a2.89 2.89 0 0 0-2.887 2.886v4.17c0 .562.454 1.017 1.017 1.017h3.739c.562 0 1.017-.455 1.017-1.017v-4.17a2.89 2.89 0 0 0-2.886-2.886zm.852 6.039h-1.705v-3.153a.853.853 0 0 1 1.705 0v3.153zM305.62 14.403a2.89 2.89 0 0 0-2.886 2.886v4.17c0 .561.456 1.017 1.017 1.017h3.738c.562 0 1.017-.455 1.017-1.017v-4.17a2.89 2.89 0 0 0-2.886-2.886zm.853 6.039h-1.704v-3.153a.853.853 0 0 1 1.704 0v3.153zm6.7-6.039a2.89 2.89 0 0 0-2.886 2.886v4.17c0 .561.455 1.017 1.017 1.017h3.739c.562 0 1.017-.455 1.017-1.017v-4.17a2.89 2.89 0 0 0-2.887-2.886zm.853 6.039h-1.705v-3.153a.853.853 0 0 1 1.705 0v3.153zm6.701-6.039a2.89 2.89 0 0 0-2.887 2.886v4.17c0 .561.454 1.017 1.017 1.017h3.739c.562 0 1.017-.455 1.017-1.017v-4.17a2.89 2.89 0 0 0-2.886-2.886zm.852 6.039h-1.705v-3.153a.853.853 0 0 1 1.705 0v3.153zm21.581 30.104a3.076 3.076 0 0 0-3.072 3.073v2.787a1.014 1.014 0 0 0 1.016 1.017h4.112c.562 0 1.017-.455 1.017-1.017v-2.787a3.076 3.076 0 0 0-3.073-3.073zm1.038 4.843h-2.078v-1.77h.001a1.04 1.04 0 0 1 1.038-1.039c.572 0 1.039.467 1.039 1.039v1.77zm-10.48-4.843a3.076 3.076 0 0 0-3.073 3.073v2.787a1.014 1.014 0 0 0 1.016 1.017h4.112c.562 0 1.017-.455 1.017-1.017v-2.787a3.076 3.076 0 0 0-3.072-3.073zm1.037 4.843h-2.078v-1.77h.001c0-.572.467-1.039 1.039-1.039a1.04 1.04 0 0 1 1.038 1.039v1.77zm-53.486 2.034h4.112c.562 0 1.017-.455 1.017-1.017v-2.787a3.076 3.076 0 0 0-3.073-3.073 3.076 3.076 0 0 0-3.072 3.073v2.787a1.015 1.015 0 0 0 1.016 1.017zm1.016-3.804h.001c0-.572.466-1.039 1.038-1.039s1.039.467 1.039 1.039v1.77h-2.078v-1.77zm8.427 3.804h4.111c.562 0 1.017-.455 1.017-1.017v-2.787a3.076 3.076 0 0 0-3.072-3.073 3.076 3.076 0 0 0-3.072 3.073v2.787a1.015 1.015 0 0 0 1.016 1.017zm1.016-3.804h.001c0-.572.466-1.039 1.038-1.039s1.038.467 1.038 1.039v1.77h-2.077v-1.77zm-8.403-27.86a3.076 3.076 0 0 0-3.072 3.073v2.787c0 .562.454 1.017 1.017 1.017h4.112c.562 0 1.017-.455 1.017-1.017v-2.787a3.077 3.077 0 0 0-3.074-3.073zm1.038 4.844h-2.077v-1.77c0-.572.466-1.039 1.038-1.039s1.039.467 1.039 1.039v1.77zm5.333-1.772v2.787c0 .562.455 1.017 1.017 1.017h4.111c.562 0 1.017-.455 1.017-1.017v-2.787a3.078 3.078 0 0 0-3.073-3.073 3.076 3.076 0 0 0-3.072 3.073zm2.033.001c0-.572.466-1.039 1.038-1.039s1.038.467 1.038 1.039v1.77h-2.076v-1.77z"/><path class="st0" d="M233.589 39.687h-4.15c-.561 0-1.017.455-1.017 1.017v5.404c0 .562.456 1.017 1.017 1.017h4.15c.561 0 1.017-.455 1.017-1.017v-5.404c0-.563-.456-1.017-1.017-1.017zm-1.017 5.404h-2.116V41.72h2.116v3.371zm9.988-5.404h-4.15c-.561 0-1.017.455-1.017 1.017v5.404c0 .562.456 1.017 1.017 1.017h4.15c.561 0 1.017-.455 1.017-1.017v-5.404c0-.563-.455-1.017-1.017-1.017zm-1.016 5.404h-2.116V41.72h2.116v3.371zm-7.955 8.562h-4.15c-.561 0-1.017.455-1.017 1.017v5.404c0 .562.456 1.017 1.017 1.017h4.15c.561 0 1.017-.455 1.017-1.017V54.67c0-.562-.456-1.017-1.017-1.017zm-1.017 5.405h-2.116v-3.371h2.116v3.371zm-14.908-19.371h-4.15c-.561 0-1.017.455-1.017 1.017v5.404c0 .562.456 1.017 1.017 1.017h4.15c.561 0 1.017-.455 1.017-1.017v-5.404c0-.563-.456-1.017-1.017-1.017zm-1.017 5.404h-2.116V41.72h2.116v3.371zm1.017 8.562h-4.15c-.561 0-1.017.455-1.017 1.017v5.404c0 .562.456 1.017 1.017 1.017h4.15c.561 0 1.017-.455 1.017-1.017V54.67c0-.562-.456-1.017-1.017-1.017zm-1.017 5.405h-2.116v-3.371h2.116v3.371zm1.017 8.77h-4.15c-.561 0-1.017.454-1.017 1.017v5.404c0 .562.456 1.017 1.017 1.017h4.15c.561 0 1.017-.455 1.017-1.017v-5.404c0-.563-.456-1.017-1.017-1.017zm-1.017 5.404h-2.116v-3.371h2.116v3.371zm25.913-19.579h-4.15c-.561 0-1.017.455-1.017 1.017v5.404c0 .562.456 1.017 1.017 1.017h4.15c.561 0 1.017-.455 1.017-1.017V54.67c0-.562-.455-1.017-1.017-1.017zm-1.016 5.405h-2.116v-3.371h2.116v3.371zm-7.955-33.046h-4.15c-.561 0-1.017.455-1.017 1.017v5.404c0 .562.456 1.017 1.017 1.017h4.15c.561 0 1.017-.455 1.017-1.017v-5.404c0-.563-.456-1.017-1.017-1.017zm-1.017 5.404h-2.116v-3.371h2.116v3.371zm9.988-5.404h-4.15c-.561 0-1.017.455-1.017 1.017v5.404c0 .562.456 1.017 1.017 1.017h4.15c.561 0 1.017-.455 1.017-1.017v-5.404c0-.563-.455-1.017-1.017-1.017zm-1.016 5.404h-2.116v-3.371h2.116v3.371z"/></svg>